<?xml version="1.0" encoding="utf-8"?>
<!-- Generator: Adobe Illustrator 27.5.0, SVG Export Plug-In . SVG Version: 6.00 Build 0)  -->
<svg version="1.1" id="Vrstva_1" xmlns="http://www.w3.org/2000/svg" xmlns:xlink="http://www.w3.org/1999/xlink" x="0px" y="0px"
	 viewBox="0 0 1000 1000" style="enable-background:new 0 0 1000 1000;" xml:space="preserve">
<style type="text/css">
	.st0{fill:#FFFFFF;}
</style>
<path class="st0" d="M422.3,852.5C318.2,828,250.8,761.8,200.6,679.7s-68.6-180.1-38-291.6s106.6-166.6,189.9-212
	c47.8-24.5,122.5-38,170.3-36.8c49,1.2,140.9-1.2,234,91.9C808.3,282.7,834,371,842.6,404c13.5,58.8,14.7,128.6-7.4,204.6
	c-19.6,76-74.7,136-113.9,166.6C650.2,831.7,546.1,880.7,422.3,852.5z M624.5,261.9c0,0-11-4.9-69.8-4.9s-110.3,46.6-110.3,106.6v76
	h-77.2v85.8h77.2V752h91.9V527.8H611l13.5-87h-88.2v-62.5c0-24.5,13.5-38,35.5-38h52.7V261.9L624.5,261.9z"/>
</svg>
