<?xml version="1.0" encoding="utf-8"?>
<!-- Generator: Adobe Illustrator 27.5.0, SVG Export Plug-In . SVG Version: 6.00 Build 0)  -->
<svg version="1.1" id="Vrstva_1" xmlns="http://www.w3.org/2000/svg" xmlns:xlink="http://www.w3.org/1999/xlink" x="0px" y="0px"
	 viewBox="0 0 1000 1000" style="enable-background:new 0 0 1000 1000;" xml:space="preserve">
<style type="text/css">
	.st0{fill:#FFFFFF;}
</style>
<g>
	<path class="st0" d="M675.2,396.9c-0.2-35.1-26-61.9-60.8-62.1c-69.6-0.3-139.3-0.2-208.9,0c-11.6,0-22.6,3.1-32.4,9.5
		c-19,12.3-28.1,30.3-28.3,52.6c-0.3,34.3-0.1,68.6-0.1,102.8c0,34.5-0.1,69.1,0,103.6c0.2,34.9,26.3,61.6,61.1,61.7
		c69.4,0.3,138.7,0.1,208.1,0c10.5,0,20.5-2.4,29.7-7.7c21.2-12.1,31.2-30.9,31.4-54.9c0.3-33.5,0.1-66.9,0.1-100.4
		C675.3,467.1,675.4,432,675.2,396.9z M509.9,603.2c-57.8-0.1-103.3-45.8-103.1-103.6c0.2-57.7,45.7-103,103.4-102.9
		c57.9,0.1,103.3,45.7,103.1,103.6C613.1,558,567.6,603.3,509.9,603.2z M613.1,417.4c-11.3-0.1-20.5-9.4-20.5-20.6
		c0-11.4,9.5-20.8,20.8-20.7c11.3,0.1,20.5,9.3,20.5,20.6C634,408.1,624.5,417.5,613.1,417.4z"/>
	<path class="st0" d="M842.6,404c-8.6-33-34.3-121.3-85.8-172.8c-93.1-93.1-185-90.7-234-91.9c-47.8-1.2-122.5,12.3-170.3,36.8
		c-83.3,45.4-159.3,100.5-189.9,212c-30.6,111.5-12.2,209.5,38,291.6c50.2,82.1,117.6,148.3,221.7,172.8
		c123.8,28.2,227.9-20.8,299-77.3c39.2-30.6,94.3-90.6,113.9-166.6C857.3,532.6,856.1,462.8,842.6,404z M716.5,612.1
		c-0.2,1-0.6,2-0.7,3.1c-5.1,42.8-33.4,76.1-74.8,87.6c-6.2,1.7-12.6,2.5-18.9,3.7c-74.7,0-149.5,0-224.2,0c-1-0.2-2.1-0.6-3.1-0.7
		c-42.3-6-71.2-28.8-85.7-69.1c-2.8-7.9-3.8-16.4-5.6-24.6c0-74.7,0-149.5,0-224.2c0.3-1.3,0.6-2.6,0.8-3.9
		c6.2-41.6,28.7-70.1,68.2-84.7c8.1-3,16.9-3.9,25.4-5.8c74.7,0,149.5,0,224.2,0c1,0.2,2.1,0.6,3.1,0.7c42.3,6,71.1,28.8,85.7,69
		c2.8,7.9,3.8,16.4,5.6,24.6C716.5,462.6,716.5,537.3,716.5,612.1z"/>
	<path class="st0" d="M510,438c-34.9,0-61.9,26.9-62,61.8c-0.1,35.1,27,62.2,62,62.2c34.9,0,61.9-26.9,62-61.8
		C572.1,465.1,545.1,438,510,438z"/>
</g>
</svg>
