<?xml version="1.0" encoding="utf-8"?>
<!-- Generator: Adobe Illustrator 27.5.0, SVG Export Plug-In . SVG Version: 6.00 Build 0)  -->
<svg version="1.1" id="Vrstva_1" xmlns="http://www.w3.org/2000/svg" xmlns:xlink="http://www.w3.org/1999/xlink" x="0px" y="0px"
	 viewBox="0 0 475 883" style="enable-background:new 0 0 475 883;" xml:space="preserve">
<style type="text/css">
	.st0{fill:#294885;}
</style>
<path class="st0" d="M5.6,529C3.2,444.5,2,395.4,59.6,395.4c41.7,0,38,14.7,38,77.2c0,61.3,1.2,101.7-50.2,101.7
	C13,571.9,6.9,541.2,5.6,529z M11.8,612.3c0-9.8,6.1-17.2,18.4-18.4c148.3-7.4,150.7,95.6,154.4,133.6c0,7.4,3.7,11,7.4,11
	s8.6-4.9,9.8-12.3c9.8-50.2,82.1-95.6,121.3-111.5c8.6-3.7,13.5-6.1,13.5-12.3c0-6.1-4.9-8.6-14.7-12.3
	c-62.5-20.8-94.3-44.1-94.3-117.6c0-31.9,2.5-42.9,18.4-42.9c45.3,0,204.6,55.1,219.3,98c2.5,8.6,6.1,30.6,6.1,61.3
	c0,161.7-72.3,281.8-232.8,281.8C92.6,870.8,2,761.8,11.8,612.3z M113.5,400.3c1.2-39.2,9.8-57.6,51.5-57.6
	c40.4,0,41.7,19.6,41.7,68.6c0,69.8,4.9,133.5-47.8,133.5C102.4,544.9,113.5,475.1,113.5,400.3z M242.1,397.9
	c-7.4-2.5-13.5-9.8-13.5-20.8c0-100.5,8.6-272,12.3-323.5c2.5-29.4,19.6-40.4,38-40.4c22.1,0,36.8,7.4,39.2,45.3
	c2.5,42.9,6.1,245,9.8,339.4c0,13.5-11,15.9-18.4,14.7L242.1,397.9z M372,432.2c-7.4-4.9-12.3-11-13.5-23.3
	c-3.7-91.9-12.3-292.8-15.9-330.8c-1.2-33.1,22.1-38,30.6-38c18.4,0,31.9,9.8,38,39.2c8.6,39.2,33.1,275.7,39.2,370v1.2
	c0,6.1-4.9,11-11,11C430.8,461.6,397.7,448.1,372,432.2z"/>
</svg>
