<?xml version="1.0" encoding="utf-8"?>
<!-- Generator: Adobe Illustrator 13.0.1, SVG Export Plug-In . SVG Version: 6.00 Build 14948)  -->
<!DOCTYPE svg PUBLIC "-//W3C//DTD SVG 1.1//EN" "http://www.w3.org/Graphics/SVG/1.1/DTD/svg11.dtd">
<svg version="1.1" id="Vrstva_1" xmlns="http://www.w3.org/2000/svg" xmlns:xlink="http://www.w3.org/1999/xlink" x="0px" y="0px"
	 width="595.275px" height="841.89px" viewBox="0 0 595.275 841.89" enable-background="new 0 0 595.275 841.89"
	 xml:space="preserve">
<title>SKAUT_tvary2016_10</title>
<path fill="#FFFFFF" d="M6.701,506.279c5.812,29.568,15.979,59.561,37.723,80.227c12.818,11.242,27.38,20.326,43.112,26.898
	c112.29,51.834,238.206,66.432,359.377,41.658c25.681-5.342,51.548-12.652,73.291-27.367c31.912-21.648,51.923-57.357,63.121-94.283
	c41.685-137.266-26.655-283.901-158.577-340.258c-31.771-13.589-227.323-26.523-271.794-11.247
	C100.376,200.136,48.267,264.054,23.431,321.6C-1.406,379.145-5.483,444.703,6.701,506.279z"/>
</svg>
